# xmcd
#
# Track frame offsets:
#       150
#       15434
#       31819
#       41441
#       54417
#       75783
#       93077
#       105232
#       111725
#       122007
#       131145
#       137309
#       149014
#       166302
#       180922
#       197343
#       213540
#       225251
#
# Disc length: 3232 seconds
#
# Revision: 1
# Processed by: cddbd v1.5.2PL0 Copyright (c) Steve Scherf et al.
# Submitted via: MusiCat 1.1
#
DISCID=d80c9e12
DTITLE=Johnny Cash - The Great Lost Performance
DYEAR=2007
DGENRE=
TTITLE0=Ring Of Fire
TTITLE1=Life's Railway To Heaven
TTITLE2=A Wonderful Time Up There
TTITLE3=Folsom Prison Blues
TTITLE4=Sunday Morning Coming Down
TTITLE5=What A Man
TTITLE6=Forty Shades Of Green
TTITLE7=Come Along And Ride This Train
TTITLE8=Five Feet High And Rising
TTITLE9=Pickin' Time
TTITLE10=A Beautiful Life
TTITLE11=Hey Porter
TTITLE12=Ragged Old Flag
TTITLE13=Tennessee Flat Top Box
TTITLE14=Ghost Riders In The Sky
TTITLE15=Jackson
TTITLE16=The Wreck of Old '97
TTITLE17=I Walk The Line
EXTD=Mercury\n\nOriginally recorded live July 28 1990 at the Paramount Theatre
EXTD=Asbury Park New Jersey - but not released until 2007.\n6- duet with Lucy 
EXTD=Clark\n16+17 - duet with June Carter Cash\n\n
EXTT0=
EXTT1=
EXTT2=
EXTT3=
EXTT4=
EXTT5=
EXTT6=
EXTT7=
EXTT8=
EXTT9=
EXTT10=
EXTT11=
EXTT12=
EXTT13=
EXTT14=
EXTT15=
EXTT16=
EXTT17=
PLAYORDER=
